<svg xmlns="http://www.w3.org/2000/svg" width="20" height="21.486" viewBox="0 0 20 21.486">
  <g id="Group_1087" data-name="Group 1087" transform="translate(-343 -471.229)">
    <g id="noun_Delete_1093335" transform="translate(343 471.228)">
      <g id="Group_738" data-name="Group 738" transform="translate(0 0)">
        <path id="Path_488" data-name="Path 488" d="M31.081,28.246V15.111H33V13.489H27.919v-.757A2.422,2.422,0,0,0,25.486,10.3H20.514a2.422,2.422,0,0,0-2.432,2.432v.757H13v1.622h1.919V28.273a3.507,3.507,0,0,0,3.514,3.514h9.135A3.565,3.565,0,0,0,31.081,28.246ZM19.7,12.732a.8.8,0,0,1,.811-.811h4.946a.8.8,0,0,1,.811.811v.757H19.7ZM16.541,28.246V15.111H29.459V28.273a1.88,1.88,0,0,1-1.892,1.892H18.432A1.939,1.939,0,0,1,16.541,28.246Z" transform="translate(-13 -10.3)" fill="#10069f"/>
        <rect id="Rectangle_309" data-name="Rectangle 309" width="1.31" height="7.837" transform="translate(9.345 8.546)" fill="#10069f"/>
        <rect id="Rectangle_310" data-name="Rectangle 310" width="1.31" height="7.837" transform="translate(12.368 8.546)" fill="#10069f"/>
        <rect id="Rectangle_311" data-name="Rectangle 311" width="1.31" height="7.837" transform="translate(6.322 8.546)" fill="#10069f"/>
      </g>
    </g>
  </g>
</svg>
